<svg width="200" height="200" viewBox="0 0 200 200" fill="none" xmlns="http://www.w3.org/2000/svg">
<defs>
    <!-- Gradiente principal para os elementos do gráfico, usando tons de cinza mais escuros e modernos -->
    <linearGradient id="modernGrayGradient" x1="0%" y1="0%" x2="100%" y2="100%">
    <stop offset="0%" style="stop-color:#1e1eb1;stop-opacity:1" /> <!-- Tailwind gray-600 -->
    <stop offset="100%" style="stop-color:#FFFFFF;stop-opacity:1" /> <!-- Tailwind gray-400 -->
    </linearGradient>
    <!-- Gradiente para a linha de tendência, com um contraste um pouco maior para se destacar sutilmente -->
    <linearGradient id="modernGrayGradientContrast" x1="0%" y1="0%" x2="100%" y2="100%">
    <stop offset="0%" style="stop-color:#1e1eb1;stop-opacity:1" /> <!-- Tailwind gray-700 -->
    <stop offset="100%" style="stop-color:#FFFFFF;stop-opacity:1" /> <!-- Tailwind gray-500 -->
    </linearGradient>
</defs>

<!-- Fundo sutil para o logo removido para transparência (mantido assim) -->
<!-- <rect x="10" y="10" width="180" height="180" rx="20" fill="#FFFFFF" stroke="#F1F5F9" stroke-width="2"/> -->

<!-- Colunas do gráfico de barras, representando dados, agora com o novo gradiente de cinza moderno -->
<rect x="40" y="120" width="30" height="40" rx="5" fill="url(#modernGrayGradient)"/>
<rect x="80" y="90" width="30" height="70" rx="5" fill="url(#modernGrayGradient)"/>
<rect x="120" y="60" width="30" height="100" rx="5" fill="url(#modernGrayGradient)"/>

<!-- Linha de tendência, indicando crescimento ou análise, agora com o novo gradiente de cinza de contraste -->
<polyline points="30,120 70,90 110,60 150,30"
            stroke="url(#modernGrayGradientContrast)"
            stroke-width="8"
            fill="none"
            stroke-linecap="round"
            stroke-linejoin="round"/>

<!-- Flecha na ponta da linha de tendência, agora com o novo gradiente de cinza de contraste -->
<polygon points="140,30 160,30 150,20" fill="url(#modernGrayGradientContrast)" transform="rotate(45 150 30)"/>


<!-- Detalhe sutil de engrenagem/cálculo no canto inferior direito, agora em tons de cinza modernos -->
<g transform="translate(165, 165) scale(0.3)">
    <circle cx="0" cy="0" r="25" fill="#6B7280"/> <!-- Tailwind gray-500 -->
    <circle cx="0" cy="0" r="10" fill="#E5E7EB"/> <!-- Tailwind gray-200, para o centro claro -->
    <g fill="#9CA3AF"> <!-- Tailwind gray-400 -->
    <rect x="-30" y="-5" width="10" height="10" rx="2" transform="rotate(0 0 0)"/>
    <rect x="-30" y="-5" width="10" height="10" rx="2" transform="rotate(45 0 0)"/>
    <rect x="-30" y="-5" width="10" height="10" rx="2" transform="rotate(90 0 0)"/>
    <rect x="-30" y="-5" width="10" height="10" rx="2" transform="rotate(135 0 0)"/>
    </g>
</g>
</svg>